<mxfile host="Electron" agent="Mozilla/5.0 (Windows NT 10.0; Win64; x64) AppleWebKit/537.36 (KHTML, like Gecko) draw.io/24.7.8 Chrome/128.0.6613.36 Electron/32.0.1 Safari/537.36" version="24.7.8">
  <diagram id="C5RBs43oDa-KdzZeNtuy" name="Page-1">
    <mxGraphModel dx="1388" dy="570" grid="0" gridSize="10" guides="1" tooltips="1" connect="1" arrows="1" fold="1" page="0" pageScale="1" pageWidth="827" pageHeight="1169" math="0" shadow="0">
      <root>
        <mxCell id="WIyWlLk6GJQsqaUBKTNV-0" />
        <mxCell id="WIyWlLk6GJQsqaUBKTNV-1" parent="WIyWlLk6GJQsqaUBKTNV-0" />
        <mxCell id="emc-SJDjb3-GtYumTHaR-23" value="" style="edgeStyle=orthogonalEdgeStyle;rounded=0;orthogonalLoop=1;jettySize=auto;html=1;entryX=0;entryY=0.5;entryDx=0;entryDy=0;" parent="WIyWlLk6GJQsqaUBKTNV-1" source="emc-SJDjb3-GtYumTHaR-24" target="zUcCvULZBNjmUCeSHpB5-2" edge="1">
          <mxGeometry relative="1" as="geometry">
            <mxPoint x="180" y="405" as="targetPoint" />
          </mxGeometry>
        </mxCell>
        <mxCell id="SCw9ndpxxCGw7AszbB7P-1" value="OCR T." style="edgeLabel;html=1;align=center;verticalAlign=middle;resizable=0;points=[];" parent="emc-SJDjb3-GtYumTHaR-23" vertex="1" connectable="0">
          <mxGeometry x="-0.2118" relative="1" as="geometry">
            <mxPoint x="4" as="offset" />
          </mxGeometry>
        </mxCell>
        <mxCell id="emc-SJDjb3-GtYumTHaR-24" value="&lt;b&gt;Extração de artigos&lt;/b&gt;" style="rounded=1;whiteSpace=wrap;html=1;absoluteArcSize=1;arcSize=14;strokeWidth=2;" parent="WIyWlLk6GJQsqaUBKTNV-1" vertex="1">
          <mxGeometry x="63.99623410548985" y="312.99666666666667" width="71.45662428130623" height="46.666666666666664" as="geometry" />
        </mxCell>
        <mxCell id="emc-SJDjb3-GtYumTHaR-33" value="" style="endArrow=classic;html=1;rounded=0;entryX=0;entryY=0.5;entryDx=0;entryDy=0;" parent="WIyWlLk6GJQsqaUBKTNV-1" target="emc-SJDjb3-GtYumTHaR-24" edge="1">
          <mxGeometry width="50" height="50" relative="1" as="geometry">
            <mxPoint x="3" y="431" as="sourcePoint" />
            <mxPoint x="52.864156070326544" y="393.3333333333333" as="targetPoint" />
            <Array as="points">
              <mxPoint x="50" y="431" />
              <mxPoint x="50" y="336" />
            </Array>
          </mxGeometry>
        </mxCell>
        <mxCell id="SCw9ndpxxCGw7AszbB7P-0" value="OCR T." style="edgeLabel;html=1;align=center;verticalAlign=middle;resizable=0;points=[];" parent="emc-SJDjb3-GtYumTHaR-33" vertex="1" connectable="0">
          <mxGeometry x="-0.4669" y="-1" relative="1" as="geometry">
            <mxPoint x="-18" as="offset" />
          </mxGeometry>
        </mxCell>
        <mxCell id="zUcCvULZBNjmUCeSHpB5-0" value="" style="edgeStyle=orthogonalEdgeStyle;rounded=0;orthogonalLoop=1;jettySize=auto;html=1;" edge="1" parent="WIyWlLk6GJQsqaUBKTNV-1" source="zUcCvULZBNjmUCeSHpB5-2" target="zUcCvULZBNjmUCeSHpB5-4">
          <mxGeometry relative="1" as="geometry" />
        </mxCell>
        <mxCell id="zUcCvULZBNjmUCeSHpB5-1" value="OCR T." style="edgeLabel;html=1;align=center;verticalAlign=middle;resizable=0;points=[];" vertex="1" connectable="0" parent="zUcCvULZBNjmUCeSHpB5-0">
          <mxGeometry x="0.0343" y="-1" relative="1" as="geometry">
            <mxPoint x="-2" y="-1" as="offset" />
          </mxGeometry>
        </mxCell>
        <mxCell id="zUcCvULZBNjmUCeSHpB5-2" value="&lt;b&gt;Calcular ordem de leitura&lt;/b&gt;" style="rounded=1;whiteSpace=wrap;html=1;absoluteArcSize=1;arcSize=14;strokeWidth=2;" vertex="1" parent="WIyWlLk6GJQsqaUBKTNV-1">
          <mxGeometry x="199.9990924922859" y="312.99666666666667" width="71.45662428130623" height="46.666666666666664" as="geometry" />
        </mxCell>
        <mxCell id="zUcCvULZBNjmUCeSHpB5-7" style="edgeStyle=orthogonalEdgeStyle;rounded=0;orthogonalLoop=1;jettySize=auto;html=1;entryX=0;entryY=0.5;entryDx=0;entryDy=0;" edge="1" parent="WIyWlLk6GJQsqaUBKTNV-1" source="zUcCvULZBNjmUCeSHpB5-4" target="zUcCvULZBNjmUCeSHpB5-9">
          <mxGeometry relative="1" as="geometry">
            <mxPoint x="440" y="405" as="targetPoint" />
          </mxGeometry>
        </mxCell>
        <mxCell id="zUcCvULZBNjmUCeSHpB5-17" style="edgeStyle=orthogonalEdgeStyle;rounded=0;orthogonalLoop=1;jettySize=auto;html=1;" edge="1" parent="WIyWlLk6GJQsqaUBKTNV-1" source="zUcCvULZBNjmUCeSHpB5-4" target="zUcCvULZBNjmUCeSHpB5-16">
          <mxGeometry relative="1" as="geometry">
            <Array as="points">
              <mxPoint x="462" y="335" />
              <mxPoint x="462" y="383" />
            </Array>
          </mxGeometry>
        </mxCell>
        <mxCell id="zUcCvULZBNjmUCeSHpB5-37" value="[OCR T.]" style="edgeLabel;html=1;align=center;verticalAlign=middle;resizable=0;points=[];" vertex="1" connectable="0" parent="zUcCvULZBNjmUCeSHpB5-17">
          <mxGeometry x="-0.72" y="2" relative="1" as="geometry">
            <mxPoint x="7" as="offset" />
          </mxGeometry>
        </mxCell>
        <mxCell id="zUcCvULZBNjmUCeSHpB5-4" value="&lt;b&gt;Isolar artigos&lt;/b&gt;" style="rounded=1;whiteSpace=wrap;html=1;absoluteArcSize=1;arcSize=14;strokeWidth=2;" vertex="1" parent="WIyWlLk6GJQsqaUBKTNV-1">
          <mxGeometry x="340" y="311.33000000000004" width="84.98" height="48.33" as="geometry" />
        </mxCell>
        <mxCell id="zUcCvULZBNjmUCeSHpB5-5" value="" style="endArrow=classic;html=1;rounded=0;dashed=1;" edge="1" parent="WIyWlLk6GJQsqaUBKTNV-1">
          <mxGeometry width="50" height="50" relative="1" as="geometry">
            <mxPoint x="183" y="334" as="sourcePoint" />
            <mxPoint x="283.7343987105135" y="335" as="targetPoint" />
            <Array as="points">
              <mxPoint x="183" y="300" />
              <mxPoint x="283.7343987105135" y="300" />
            </Array>
          </mxGeometry>
        </mxCell>
        <mxCell id="zUcCvULZBNjmUCeSHpB5-9" value="&lt;b&gt;Markdown&lt;/b&gt;" style="rounded=1;whiteSpace=wrap;html=1;absoluteArcSize=1;arcSize=14;strokeWidth=2;" vertex="1" parent="WIyWlLk6GJQsqaUBKTNV-1">
          <mxGeometry x="498.9990924922859" y="252.99666666666667" width="71.45662428130623" height="46.666666666666664" as="geometry" />
        </mxCell>
        <mxCell id="zUcCvULZBNjmUCeSHpB5-26" style="edgeStyle=orthogonalEdgeStyle;rounded=0;orthogonalLoop=1;jettySize=auto;html=1;entryX=0;entryY=0.5;entryDx=0;entryDy=0;" edge="1" parent="WIyWlLk6GJQsqaUBKTNV-1" source="zUcCvULZBNjmUCeSHpB5-14" target="zUcCvULZBNjmUCeSHpB5-24">
          <mxGeometry relative="1" as="geometry" />
        </mxCell>
        <mxCell id="zUcCvULZBNjmUCeSHpB5-14" value="&lt;b&gt;Texto simples&lt;/b&gt;" style="rounded=1;whiteSpace=wrap;html=1;absoluteArcSize=1;arcSize=14;strokeWidth=2;" vertex="1" parent="WIyWlLk6GJQsqaUBKTNV-1">
          <mxGeometry x="63.99623410548985" y="500.99666666666667" width="71.45662428130623" height="46.666666666666664" as="geometry" />
        </mxCell>
        <mxCell id="zUcCvULZBNjmUCeSHpB5-15" value="" style="endArrow=classic;html=1;rounded=0;entryX=0.008;entryY=0.561;entryDx=0;entryDy=0;entryPerimeter=0;" edge="1" parent="WIyWlLk6GJQsqaUBKTNV-1" target="zUcCvULZBNjmUCeSHpB5-14">
          <mxGeometry width="50" height="50" relative="1" as="geometry">
            <mxPoint x="50" y="431" as="sourcePoint" />
            <mxPoint x="520" y="450" as="targetPoint" />
            <Array as="points">
              <mxPoint x="49" y="527" />
            </Array>
          </mxGeometry>
        </mxCell>
        <mxCell id="zUcCvULZBNjmUCeSHpB5-19" style="edgeStyle=orthogonalEdgeStyle;rounded=0;orthogonalLoop=1;jettySize=auto;html=1;" edge="1" parent="WIyWlLk6GJQsqaUBKTNV-1" source="zUcCvULZBNjmUCeSHpB5-16" target="zUcCvULZBNjmUCeSHpB5-18">
          <mxGeometry relative="1" as="geometry">
            <Array as="points">
              <mxPoint x="593" y="383" />
              <mxPoint x="593" y="424" />
            </Array>
          </mxGeometry>
        </mxCell>
        <mxCell id="zUcCvULZBNjmUCeSHpB5-16" value="&lt;b&gt;Txt&lt;/b&gt;" style="rounded=1;whiteSpace=wrap;html=1;absoluteArcSize=1;arcSize=14;strokeWidth=2;" vertex="1" parent="WIyWlLk6GJQsqaUBKTNV-1">
          <mxGeometry x="498.9990924922859" y="359.6566666666667" width="71.45662428130623" height="46.666666666666664" as="geometry" />
        </mxCell>
        <mxCell id="zUcCvULZBNjmUCeSHpB5-18" value="" style="shape=waypoint;sketch=0;fillStyle=solid;size=6;pointerEvents=1;points=[];fillColor=none;resizable=0;rotatable=0;perimeter=centerPerimeter;snapToPoint=1;" vertex="1" parent="WIyWlLk6GJQsqaUBKTNV-1">
          <mxGeometry x="655" y="414" width="20" height="20" as="geometry" />
        </mxCell>
        <mxCell id="zUcCvULZBNjmUCeSHpB5-20" style="edgeStyle=orthogonalEdgeStyle;rounded=0;orthogonalLoop=1;jettySize=auto;html=1;entryX=0.376;entryY=0.607;entryDx=0;entryDy=0;entryPerimeter=0;" edge="1" parent="WIyWlLk6GJQsqaUBKTNV-1" source="zUcCvULZBNjmUCeSHpB5-9" target="zUcCvULZBNjmUCeSHpB5-18">
          <mxGeometry relative="1" as="geometry">
            <Array as="points">
              <mxPoint x="593" y="276" />
              <mxPoint x="593" y="424" />
            </Array>
          </mxGeometry>
        </mxCell>
        <mxCell id="zUcCvULZBNjmUCeSHpB5-21" value="Texto" style="edgeLabel;html=1;align=center;verticalAlign=middle;resizable=0;points=[];" vertex="1" connectable="0" parent="zUcCvULZBNjmUCeSHpB5-20">
          <mxGeometry x="0.1605" y="-2" relative="1" as="geometry">
            <mxPoint as="offset" />
          </mxGeometry>
        </mxCell>
        <mxCell id="zUcCvULZBNjmUCeSHpB5-22" value="OCR T." style="edgeLabel;html=1;align=center;verticalAlign=middle;resizable=0;points=[];" vertex="1" connectable="0" parent="WIyWlLk6GJQsqaUBKTNV-1">
          <mxGeometry x="165.94095362489134" y="524.3333333333333" as="geometry" />
        </mxCell>
        <mxCell id="zUcCvULZBNjmUCeSHpB5-32" style="edgeStyle=orthogonalEdgeStyle;rounded=0;orthogonalLoop=1;jettySize=auto;html=1;entryX=0;entryY=0.5;entryDx=0;entryDy=0;" edge="1" parent="WIyWlLk6GJQsqaUBKTNV-1" source="zUcCvULZBNjmUCeSHpB5-24" target="zUcCvULZBNjmUCeSHpB5-28">
          <mxGeometry relative="1" as="geometry" />
        </mxCell>
        <mxCell id="zUcCvULZBNjmUCeSHpB5-33" style="edgeStyle=orthogonalEdgeStyle;rounded=0;orthogonalLoop=1;jettySize=auto;html=1;entryX=0;entryY=0.5;entryDx=0;entryDy=0;" edge="1" parent="WIyWlLk6GJQsqaUBKTNV-1" source="zUcCvULZBNjmUCeSHpB5-24" target="zUcCvULZBNjmUCeSHpB5-27">
          <mxGeometry relative="1" as="geometry" />
        </mxCell>
        <mxCell id="zUcCvULZBNjmUCeSHpB5-34" value="OCR T." style="edgeLabel;html=1;align=center;verticalAlign=middle;resizable=0;points=[];" vertex="1" connectable="0" parent="zUcCvULZBNjmUCeSHpB5-33">
          <mxGeometry x="-0.7751" y="-1" relative="1" as="geometry">
            <mxPoint x="6" y="-1" as="offset" />
          </mxGeometry>
        </mxCell>
        <mxCell id="zUcCvULZBNjmUCeSHpB5-24" value="&lt;b&gt;Calcular ordem de leitura&lt;/b&gt;" style="rounded=1;whiteSpace=wrap;html=1;absoluteArcSize=1;arcSize=14;strokeWidth=2;" vertex="1" parent="WIyWlLk6GJQsqaUBKTNV-1">
          <mxGeometry x="201.2490924922859" y="500.99666666666667" width="71.45662428130623" height="46.666666666666664" as="geometry" />
        </mxCell>
        <mxCell id="zUcCvULZBNjmUCeSHpB5-25" value="" style="endArrow=classic;html=1;rounded=0;dashed=1;" edge="1" parent="WIyWlLk6GJQsqaUBKTNV-1">
          <mxGeometry width="50" height="50" relative="1" as="geometry">
            <mxPoint x="184.25" y="522" as="sourcePoint" />
            <mxPoint x="284.9843987105135" y="523" as="targetPoint" />
            <Array as="points">
              <mxPoint x="184.25" y="488" />
              <mxPoint x="284.9843987105135" y="488" />
            </Array>
          </mxGeometry>
        </mxCell>
        <mxCell id="zUcCvULZBNjmUCeSHpB5-27" value="&lt;b&gt;Markdown&lt;/b&gt;" style="rounded=1;whiteSpace=wrap;html=1;absoluteArcSize=1;arcSize=14;strokeWidth=2;" vertex="1" parent="WIyWlLk6GJQsqaUBKTNV-1">
          <mxGeometry x="356.9990924922859" y="437.99666666666667" width="71.45662428130623" height="46.666666666666664" as="geometry" />
        </mxCell>
        <mxCell id="zUcCvULZBNjmUCeSHpB5-28" value="&lt;b&gt;Txt&lt;/b&gt;" style="rounded=1;whiteSpace=wrap;html=1;absoluteArcSize=1;arcSize=14;strokeWidth=2;" vertex="1" parent="WIyWlLk6GJQsqaUBKTNV-1">
          <mxGeometry x="356.9990924922859" y="544.6566666666668" width="71.45662428130623" height="46.666666666666664" as="geometry" />
        </mxCell>
        <mxCell id="zUcCvULZBNjmUCeSHpB5-29" value="Texto" style="edgeLabel;html=1;align=center;verticalAlign=middle;resizable=0;points=[];" vertex="1" connectable="0" parent="WIyWlLk6GJQsqaUBKTNV-1">
          <mxGeometry x="449" y="596.8157167735923" as="geometry" />
        </mxCell>
        <mxCell id="zUcCvULZBNjmUCeSHpB5-30" style="edgeStyle=orthogonalEdgeStyle;rounded=0;orthogonalLoop=1;jettySize=auto;html=1;entryX=0.08;entryY=0.86;entryDx=0;entryDy=0;entryPerimeter=0;" edge="1" parent="WIyWlLk6GJQsqaUBKTNV-1" source="zUcCvULZBNjmUCeSHpB5-28" target="zUcCvULZBNjmUCeSHpB5-18">
          <mxGeometry relative="1" as="geometry">
            <Array as="points">
              <mxPoint x="485" y="568" />
              <mxPoint x="485" y="521" />
              <mxPoint x="593" y="521" />
              <mxPoint x="593" y="425" />
              <mxPoint x="663" y="425" />
              <mxPoint x="663" y="424" />
            </Array>
          </mxGeometry>
        </mxCell>
        <mxCell id="zUcCvULZBNjmUCeSHpB5-31" style="edgeStyle=orthogonalEdgeStyle;rounded=0;orthogonalLoop=1;jettySize=auto;html=1;" edge="1" parent="WIyWlLk6GJQsqaUBKTNV-1" target="zUcCvULZBNjmUCeSHpB5-18">
          <mxGeometry relative="1" as="geometry">
            <mxPoint x="428.45571677359226" y="460.35482758620697" as="sourcePoint" />
            <mxPoint x="665" y="423.01" as="targetPoint" />
            <Array as="points">
              <mxPoint x="485" y="460" />
              <mxPoint x="485" y="520" />
              <mxPoint x="593" y="520" />
              <mxPoint x="593" y="424" />
            </Array>
          </mxGeometry>
        </mxCell>
        <mxCell id="zUcCvULZBNjmUCeSHpB5-35" value="Texto" style="edgeLabel;html=1;align=center;verticalAlign=middle;resizable=0;points=[];" vertex="1" connectable="0" parent="zUcCvULZBNjmUCeSHpB5-31">
          <mxGeometry x="0.4503" relative="1" as="geometry">
            <mxPoint as="offset" />
          </mxGeometry>
        </mxCell>
      </root>
    </mxGraphModel>
  </diagram>
</mxfile>
